<svg width="63" height="63" viewBox="0 0 63 63" fill="none" xmlns="http://www.w3.org/2000/svg">
<path d="M21.4028 44.7508C20.8867 44.7508 20.3918 44.5458 20.0269 44.1809C19.662 43.816 19.457 43.3211 19.457 42.8051V19.4564C19.4572 19.1249 19.5421 18.7989 19.7036 18.5094C19.8652 18.2198 20.098 17.9764 20.3801 17.8022C20.6621 17.6279 20.984 17.5286 21.3152 17.5137C21.6464 17.4988 21.9759 17.5687 22.2725 17.7169L45.6212 29.3913C45.9439 29.553 46.2153 29.8014 46.405 30.1086C46.5946 30.4158 46.6951 30.7697 46.6951 31.1307C46.6951 31.4918 46.5946 31.8457 46.405 32.1529C46.2153 32.4601 45.9439 32.7085 45.6212 32.8702L22.2725 44.5446C22.0025 44.6799 21.7047 44.7505 21.4028 44.7508ZM23.3485 22.6046V39.6569L40.4008 31.1307L23.3485 22.6046Z" fill="white"/>
<path d="M31.1317 7.78207C35.7497 7.78207 40.2639 9.15145 44.1036 11.717C47.9433 14.2826 50.9359 17.9292 52.7031 22.1956C54.4703 26.462 54.9327 31.1567 54.0318 35.6859C53.1309 40.2151 50.9071 44.3754 47.6418 47.6408C44.3764 50.9061 40.216 53.1299 35.6868 54.0308C31.1576 54.9317 26.463 54.4693 22.1966 52.7021C17.9302 50.9349 14.2836 47.9423 11.718 44.1026C9.15244 40.2629 7.78306 35.7487 7.78306 31.1308C7.78306 24.9383 10.243 18.9995 14.6217 14.6207C19.0005 10.242 24.9393 7.78207 31.1317 7.78207ZM31.1317 3.89062C25.7442 3.89062 20.4776 5.48823 15.9979 8.48142C11.5183 11.4746 8.02689 15.7289 5.96515 20.7064C3.9034 25.6839 3.36396 31.161 4.41503 36.445C5.46609 41.7291 8.06046 46.5828 11.8701 50.3924C15.6797 54.202 20.5334 56.7964 25.8175 57.8475C31.1015 58.8985 36.5786 58.3591 41.5561 56.2974C46.5336 54.2356 50.7879 50.7442 53.7811 46.2646C56.7743 41.7849 58.3719 36.5183 58.3719 31.1308C58.3719 23.9062 55.5019 16.9776 50.3934 11.8691C45.2849 6.76056 38.3563 3.89063 31.1317 3.89062Z" fill="white"/>
</svg>
