<svg width="54" height="44" viewBox="0 0 54 44" fill="none" xmlns="http://www.w3.org/2000/svg">
<path d="M28.9306 44V31.4286H36.6455L27.0019 18.8571L17.3584 31.4286H25.0732V44H15.4297V43.8952C15.1057 43.9162 14.7971 44 14.4653 44C10.6289 44 6.94957 42.3444 4.23679 39.3974C1.52402 36.4504 0 32.4534 0 28.2857C0 20.2232 5.61254 13.6526 12.8143 12.7516C13.4458 9.16581 15.2077 5.9311 17.797 3.60384C20.3864 1.27658 23.6413 0.00223779 27.0019 0C30.3631 0.00201839 33.6185 1.27619 36.2085 3.6034C38.7985 5.93062 40.5612 9.16544 41.1934 12.7516C48.3952 13.6526 54 20.2232 54 28.2857C54 32.4534 52.476 36.4504 49.7632 39.3974C47.0504 42.3444 43.3711 44 39.5347 44C39.2107 44 38.8982 43.9162 38.5703 43.8952V44H28.9306Z" fill="url(#paint0_linear_1418_1842)"/>
<defs>
<linearGradient id="paint0_linear_1418_1842" x1="28.2806" y1="-1.45084e-09" x2="28.2807" y2="46.4444" gradientUnits="userSpaceOnUse">
<stop stop-color="#0F87CD"/>
<stop offset="0.55" stop-color="#1A69B4"/>
<stop offset="1" stop-color="#264B9B"/>
</linearGradient>
</defs>
</svg>
