<svg width="22" height="22" viewBox="0 0 22 22" fill="none" xmlns="http://www.w3.org/2000/svg">
<path d="M10.9993 15.3327C13.3926 15.3327 15.3327 13.3926 15.3327 10.9993C15.3327 8.60611 13.3926 6.66602 10.9993 6.66602C8.60611 6.66602 6.66602 8.60611 6.66602 10.9993C6.66602 13.3926 8.60611 15.3327 10.9993 15.3327Z" fill="url(#paint0_linear_1315_135)"/>
<path d="M12.0827 2.40743V0.166016H9.91601V2.40743C8.00967 2.65084 6.23806 3.5202 4.87913 4.87913C3.5202 6.23806 2.65084 8.00967 2.40743 9.91601H0.166016V12.0827H2.40743C2.65048 13.9892 3.51973 15.761 4.87873 17.12C6.23773 18.479 8.00953 19.3482 9.91601 19.5913V21.8327H12.0827V19.5913C13.9892 19.3484 15.7611 18.4792 17.1202 17.1202C18.4792 15.7611 19.3484 13.9892 19.5913 12.0827H21.8327V9.91601H19.5913C19.3482 8.00953 18.479 6.23773 17.12 4.87873C15.761 3.51973 13.9892 2.65048 12.0827 2.40743ZM10.9993 17.4993C7.4146 17.4993 4.49935 14.5841 4.49935 10.9993C4.49935 7.4146 7.4146 4.49935 10.9993 4.49935C14.5841 4.49935 17.4993 7.4146 17.4993 10.9993C17.4993 14.5841 14.5841 17.4993 10.9993 17.4993Z" fill="url(#paint1_linear_1315_135)"/>
<defs>
<linearGradient id="paint0_linear_1315_135" x1="11.2049" y1="6.66602" x2="11.2049" y2="15.8142" gradientUnits="userSpaceOnUse">
<stop stop-color="#0F87CD"/>
<stop offset="0.55" stop-color="#1A69B4"/>
<stop offset="1" stop-color="#264B9B"/>
</linearGradient>
<linearGradient id="paint1_linear_1315_135" x1="11.5132" y1="0.166016" x2="11.5132" y2="23.0364" gradientUnits="userSpaceOnUse">
<stop stop-color="#0F87CD"/>
<stop offset="0.55" stop-color="#1A69B4"/>
<stop offset="1" stop-color="#264B9B"/>
</linearGradient>
</defs>
</svg>
