<svg width="26" height="26" viewBox="0 0 26 26" fill="none" xmlns="http://www.w3.org/2000/svg">
<path fill-rule="evenodd" clip-rule="evenodd" d="M9 6.88843C10.1046 6.88843 11 5.98781 11 4.87683C11 3.76585 10.1046 2.86523 9 2.86523C7.89543 2.86523 7 3.76585 7 4.87683C7 5.98781 7.89543 6.88843 9 6.88843ZM9 5.58089C9.3866 5.58089 9.7 5.26567 9.7 4.87683C9.7 4.48799 9.3866 4.17277 9 4.17277C8.6134 4.17277 8.3 4.48799 8.3 4.87683C8.3 5.26567 8.6134 5.58089 9 5.58089Z" fill="url(#paint0_linear_1372_6530)"/>
<path fill-rule="evenodd" clip-rule="evenodd" d="M4.15 4.62669C4.15 2.0203 6.37393 0 9 0C11.6261 0 13.85 2.0203 13.85 4.62669C13.85 5.06012 13.8114 5.53528 13.7269 6.03578L17 6.8588L24.7575 4.90818C25.0562 4.83306 25.3727 4.90057 25.6154 5.09117C25.8581 5.28178 26 5.57423 26 5.88395V22.9826C26 23.4441 25.6877 23.8464 25.2425 23.9584L17.2425 25.97C17.0833 26.01 16.9167 26.01 16.7575 25.97L9 24.0193L1.24254 25.97C0.94379 26.0451 0.6273 25.9776 0.38459 25.787C0.14187 25.5964 0 25.3039 0 24.9942V7.89555C0 7.43402 0.3123 7.03172 0.75746 6.91978L4.2731 6.03578C4.18863 5.53528 4.15 5.06012 4.15 4.62669ZM9 1.70986C7.20779 1.70986 5.85 3.06691 5.85 4.62669C5.85 6.21686 6.5125 8.57287 8.40979 10.3615C8.74241 10.6751 9.2576 10.6751 9.5902 10.3615C11.4875 8.57287 12.15 6.21686 12.15 4.62669C12.15 3.06691 10.7922 1.70986 9 1.70986ZM4.80904 7.97453L2.22684 8.62382C2.09349 8.65735 2 8.77726 2 8.91476V23.3212C2 23.5165 2.18371 23.6598 2.37316 23.6121L7.77316 22.2543C7.90651 22.2208 8 22.1009 8 21.9634V12.2506C6.40353 11.024 5.39235 9.4792 4.80904 7.97453ZM10 12.2506V21.9634C10 22.1009 10.0935 22.2208 10.2268 22.2543L15.6268 23.6121C15.8163 23.6598 16 23.5165 16 23.3212V8.91477C16 8.77726 15.9065 8.65735 15.7732 8.62382L13.191 7.97453C12.6076 9.4792 11.5965 11.024 10 12.2506ZM24 21.9634C24 22.1009 23.9065 22.2208 23.7732 22.2543L18.3732 23.6121C18.1837 23.6598 18 23.5165 18 23.3212V8.91477C18 8.77726 18.0935 8.65736 18.2268 8.62382L23.6268 7.26599C23.8163 7.21835 24 7.36159 24 7.55693V21.9634Z" fill="url(#paint1_linear_1372_6530)"/>
<defs>
<linearGradient id="paint0_linear_1372_6530" x1="9.09486" y1="2.86523" x2="9.09486" y2="7.11194" gradientUnits="userSpaceOnUse">
<stop stop-color="#0F87CD"/>
<stop offset="0.55" stop-color="#1A69B4"/>
<stop offset="1" stop-color="#264B9B"/>
</linearGradient>
<linearGradient id="paint1_linear_1372_6530" x1="13.6166" y1="-8.57314e-10" x2="13.6166" y2="27.4445" gradientUnits="userSpaceOnUse">
<stop stop-color="#0F87CD"/>
<stop offset="0.55" stop-color="#1A69B4"/>
<stop offset="1" stop-color="#264B9B"/>
</linearGradient>
</defs>
</svg>
