<svg width="19" height="20" viewBox="0 0 19 20" fill="none" xmlns="http://www.w3.org/2000/svg">
<path d="M7.76188 18C7.76188 18.3978 7.91333 18.7794 8.18292 19.0607C8.4525 19.342 8.81813 19.5 9.19938 19.5C9.58063 19.5 9.94626 19.342 10.2158 19.0607C10.4854 18.7794 10.6369 18.3978 10.6369 18V11.5H16.866C17.2473 11.5 17.6129 11.342 17.8825 11.0607C18.1521 10.7794 18.3035 10.3978 18.3035 10C18.3035 9.60218 18.1521 9.22064 17.8825 8.93934C17.6129 8.65804 17.2473 8.5 16.866 8.5H10.6369V2C10.6369 1.60218 10.4854 1.22064 10.2158 0.93934C9.94626 0.658035 9.58063 0.5 9.19938 0.5C8.81813 0.5 8.4525 0.658035 8.18292 0.93934C7.91333 1.22064 7.76188 1.60218 7.76188 2V8.5H1.53271C1.15147 8.5 0.785832 8.65804 0.516249 8.93934C0.246665 9.22064 0.0952148 9.60218 0.0952148 10C0.0952148 10.3978 0.246665 10.7794 0.516249 11.0607C0.785832 11.342 1.15147 11.5 1.53271 11.5H7.76188V18Z" fill="white"/>
</svg>
