<svg width="20" height="19" viewBox="0 0 20 19" fill="none" xmlns="http://www.w3.org/2000/svg">
<path d="M18.5719 1.76903L13.615 1.76905V0.591062C13.615 0.2645 13.338 0 12.996 0C12.6539 0 12.3769 0.2645 12.3769 0.591062V1.76875H7.42442V0.591062C7.42442 0.2645 7.14739 0 6.80535 0C6.46332 0 6.18629 0.2645 6.18629 0.591062V1.76875H1.23812C0.55437 1.76875 0 2.29805 0 2.95088V17.7274C0 18.3802 0.55437 18.9095 1.23812 18.9095H18.5719C19.2556 18.9095 19.81 18.3802 19.81 17.7274V2.95088C19.81 2.29833 19.2556 1.76903 18.5719 1.76903ZM18.5719 17.7274H1.23812V2.95088H6.18629V3.54637C6.18629 3.87291 6.46332 4.13743 6.80535 4.13743C7.14739 4.13743 7.42442 3.87291 7.42442 3.54637V2.95117H12.3769V3.54667C12.3769 3.87323 12.6539 4.13773 12.996 4.13773C13.338 4.13773 13.615 3.87323 13.615 3.54667V2.95117H18.5719V17.7274ZM14.2384 9.45283H15.4766C15.8183 9.45283 16.0956 9.18804 16.0956 8.86177V7.67965C16.0956 7.35338 15.8183 7.08859 15.4766 7.08859H14.2384C13.8967 7.08859 13.6194 7.35338 13.6194 7.67965V8.86177C13.6194 9.18804 13.8967 9.45283 14.2384 9.45283ZM14.2384 14.181H15.4766C15.8183 14.181 16.0956 13.9165 16.0956 13.59V12.4078C16.0956 12.0816 15.8183 11.8168 15.4766 11.8168H14.2384C13.8967 11.8168 13.6194 12.0816 13.6194 12.4078V13.59C13.6194 13.9168 13.8967 14.181 14.2384 14.181ZM10.5241 11.8168H9.28594C8.94421 11.8168 8.66687 12.0816 8.66687 12.4078V13.59C8.66687 13.9165 8.94421 14.181 9.28594 14.181H10.5241C10.8658 14.181 11.1431 13.9165 11.1431 13.59V12.4078C11.1431 12.0819 10.8658 11.8168 10.5241 11.8168ZM10.5241 7.08859H9.28594C8.94421 7.08859 8.66687 7.35338 8.66687 7.67965V8.86177C8.66687 9.18804 8.94421 9.45283 9.28594 9.45283H10.5241C10.8658 9.45283 11.1431 9.18804 11.1431 8.86177V7.67965C11.1431 7.35309 10.8658 7.08859 10.5241 7.08859ZM5.57156 7.08859H4.33344C3.99171 7.08859 3.71438 7.35338 3.71438 7.67965V8.86177C3.71438 9.18804 3.99171 9.45283 4.33344 9.45283H5.57156C5.91328 9.45283 6.19062 9.18804 6.19062 8.86177V7.67965C6.19062 7.35309 5.91328 7.08859 5.57156 7.08859ZM5.57156 11.8168H4.33344C3.99171 11.8168 3.71438 12.0816 3.71438 12.4078V13.59C3.71438 13.9165 3.99171 14.181 4.33344 14.181H5.57156C5.91328 14.181 6.19062 13.9165 6.19062 13.59V12.4078C6.19062 12.0819 5.91328 11.8168 5.57156 11.8168Z" fill="#000429"/>
</svg>
