<svg width="17" height="19" viewBox="0 0 17 19" fill="none" xmlns="http://www.w3.org/2000/svg">
<path fill-rule="evenodd" clip-rule="evenodd" d="M0.60173 15.8334C0.29916 16.8889 0.583255 19 8.4419 19C16.3005 19 16.5889 16.8889 16.2793 15.8334C15.0398 13.0147 12.3569 11.0853 8.35924 11.0845C4.56964 11.0837 1.88002 13.0029 0.612447 15.8095L0.60173 15.8334ZM8.4419 12.6667C5.64484 12.6661 3.57427 13.9235 2.42053 15.8334C2.07199 16.3611 2.79992 17.4167 8.49992 17.4167C14.1999 17.4167 14.9436 16.3611 14.6029 15.8334C13.4629 13.9242 11.3841 12.6673 8.4419 12.6667Z" fill="url(#paint0_linear_1314_142)"/>
<path fill-rule="evenodd" clip-rule="evenodd" d="M8.5 9.5C11.1234 9.5 13.25 7.37335 13.25 4.75C13.25 2.12665 11.1234 0 8.5 0C5.87665 0 3.75 2.12665 3.75 4.75C3.75 7.37335 5.87665 9.5 8.5 9.5ZM8.5 7.91667C10.2489 7.91667 11.6667 6.4989 11.6667 4.75C11.6667 3.0011 10.2489 1.58333 8.5 1.58333C6.7511 1.58333 5.33333 3.0011 5.33333 4.75C5.33333 6.4989 6.7511 7.91667 8.5 7.91667Z" fill="url(#paint1_linear_1314_142)"/>
<defs>
<linearGradient id="paint0_linear_1314_142" x1="8.81702" y1="11.0845" x2="8.81703" y2="19.4398" gradientUnits="userSpaceOnUse">
<stop stop-color="#0F87CD"/>
<stop offset="0.55" stop-color="#1A69B4"/>
<stop offset="1" stop-color="#264B9B"/>
</linearGradient>
<linearGradient id="paint1_linear_1314_142" x1="8.7253" y1="-3.13249e-10" x2="8.7253" y2="10.0278" gradientUnits="userSpaceOnUse">
<stop stop-color="#0F87CD"/>
<stop offset="0.55" stop-color="#1A69B4"/>
<stop offset="1" stop-color="#264B9B"/>
</linearGradient>
</defs>
</svg>
