<svg width="29" height="21" viewBox="0 0 29 21" fill="none" xmlns="http://www.w3.org/2000/svg">
<path d="M3.00003 8.33345L1.93953 9.27612L0.879028 8.33345L1.93953 7.39079L3.00003 8.33345ZM28.5 19.0001C28.5 19.3537 28.342 19.6929 28.0607 19.9429C27.7794 20.193 27.3979 20.3335 27 20.3335C26.6022 20.3335 26.2207 20.193 25.9394 19.9429C25.6581 19.6929 25.5 19.3537 25.5 19.0001H28.5ZM9.43953 15.9428L1.93953 9.27612L4.06053 7.39079L11.5605 14.0575L9.43953 15.9428ZM1.93953 7.39079L9.43953 0.724121L11.5605 2.60945L4.06053 9.27612L1.93953 7.39079ZM3.00003 7.00012H18V9.66679H3.00003V7.00012ZM28.5 16.3335V19.0001H25.5V16.3335H28.5ZM18 7.00012C20.7848 7.00012 23.4555 7.98345 25.4246 9.73379C27.3938 11.4841 28.5 13.8581 28.5 16.3335H25.5C25.5 14.5653 24.7099 12.8697 23.3033 11.6194C21.8968 10.3692 19.9892 9.66679 18 9.66679V7.00012Z" fill="black"/>
</svg>
