<svg width="15" height="15" viewBox="0 0 15 15" fill="none" xmlns="http://www.w3.org/2000/svg">
<path d="M7.5 0C5.4293 0 3.5543 0.839648 2.19697 2.19697C0.839648 3.5543 0 5.4293 0 7.5C0 9.5707 0.839648 11.4457 2.19697 12.803C3.5543 14.1604 5.4293 15 7.5 15C9.5707 15 11.4457 14.1604 12.803 12.803C14.1604 11.4457 15 9.5707 15 7.5C15 5.4293 14.1604 3.5543 12.803 2.19697C11.4457 0.839648 9.5707 0 7.5 0ZM7.5 10.7429C7.91221 10.7429 8.24971 10.4045 8.24971 9.99316V8.24941H9.99316C10.4048 8.24941 10.7432 7.91133 10.7432 7.49941C10.7432 7.08779 10.4057 6.74971 9.99316 6.74971H8.24971V5.00625C8.24971 4.59463 7.91191 4.25654 7.5 4.25654C7.08809 4.25654 6.75029 4.59375 6.75029 5.00625V6.74971H5.00654C4.59434 6.74971 4.25654 7.08721 4.25654 7.49941C4.25654 7.91191 4.59492 8.24941 5.00654 8.24941H6.75029V9.99316C6.75029 10.4054 7.08779 10.7429 7.5 10.7429ZM2.9042 2.9042C4.08018 1.72822 5.70527 1.00078 7.5 1.00078C9.29473 1.00078 10.9198 1.72822 12.0958 2.9042C13.2718 4.08018 13.9992 5.70527 13.9992 7.5C13.9992 9.29473 13.2718 10.9198 12.0958 12.0958C10.9198 13.2718 9.29473 13.9992 7.5 13.9992C5.70527 13.9992 4.08018 13.2718 2.9042 12.0958C1.72822 10.9198 1.00078 9.29473 1.00078 7.5C1.00078 5.70527 1.72822 4.08018 2.9042 2.9042Z" fill="url(#paint0_linear_1_17)"/>
<defs>
<linearGradient id="paint0_linear_1_17" x1="7.14427" y1="-4.94604e-10" x2="7.14426" y2="15.8333" gradientUnits="userSpaceOnUse">
<stop stop-color="#0F87CD"/>
<stop offset="0.55" stop-color="#1A69B4"/>
<stop offset="1" stop-color="#264B9B"/>
</linearGradient>
</defs>
</svg>
