<svg width="28" height="28" viewBox="0 0 28 28" fill="none" xmlns="http://www.w3.org/2000/svg">
<path d="M14 0C6.258 0 0 6.258 0 14C0 21.742 6.258 28 14 28C21.742 28 28 21.742 28 14C28 6.258 21.742 0 14 0ZM20.02 20.02C19.474 20.566 18.592 20.566 18.046 20.02L14 15.974L9.954 20.02C9.408 20.566 8.526 20.566 7.98 20.02C7.434 19.474 7.434 18.592 7.98 18.046L12.026 14L7.98 9.954C7.434 9.408 7.434 8.526 7.98 7.98C8.526 7.434 9.408 7.434 9.954 7.98L14 12.026L18.046 7.98C18.592 7.434 19.474 7.434 20.02 7.98C20.566 8.526 20.566 9.408 20.02 9.954L15.974 14L20.02 18.046C20.552 18.578 20.552 19.474 20.02 20.02Z" fill="#030F23"/>
</svg>
