<svg width="61" height="61" viewBox="0 0 61 61" fill="none" xmlns="http://www.w3.org/2000/svg">
<path d="M55.4614 30.5C55.4614 44.307 44.2684 55.5 30.4614 55.5C16.6543 55.5 5.46143 44.307 5.46143 30.5C5.46143 16.6929 16.6543 5.5 30.4614 5.5C44.2684 5.5 55.4614 16.6929 55.4614 30.5Z" fill="black"/>
<path d="M42.4789 48.028C39.0609 50.376 34.9217 51.75 30.4614 51.75C26.0012 51.75 21.862 50.3758 18.4439 48.0278C16.9343 46.9908 16.2891 45.0155 17.1669 43.408C18.9864 40.0755 22.7357 38 30.4614 38C38.1872 38 41.9364 40.0758 43.7559 43.408C44.6337 45.0155 43.9884 46.991 42.4789 48.028Z" fill="white"/>
<path d="M30.4614 30.5C34.6037 30.5 37.9614 27.1423 37.9614 23C37.9614 18.8579 34.6037 15.5 30.4614 15.5C26.3194 15.5 22.9615 18.8579 22.9615 23C22.9615 27.1423 26.3194 30.5 30.4614 30.5Z" fill="white"/>
</svg>
