<svg width="19" height="19" viewBox="0 0 19 19" fill="none" xmlns="http://www.w3.org/2000/svg">
<path d="M9.47813 18.21C4.65556 18.21 0.746338 14.3007 0.746338 9.47816C0.746338 4.65558 4.65556 0.746359 9.47813 0.746359C14.3007 0.746359 18.2099 4.65558 18.2099 9.47816C18.2099 14.3007 14.3007 18.21 9.47813 18.21ZM9.47813 16.4636C11.3308 16.4636 13.1076 15.7276 14.4176 14.4176C15.7276 13.1076 16.4636 11.3308 16.4636 9.47816C16.4636 7.6255 15.7276 5.84873 14.4176 4.53871C13.1076 3.22868 11.3308 2.49272 9.47813 2.49272C7.62548 2.49272 5.84871 3.22868 4.53868 4.53871C3.22866 5.84873 2.4927 7.6255 2.4927 9.47816C2.4927 11.3308 3.22866 13.1076 4.53868 14.4176C5.84871 15.7276 7.62548 16.4636 9.47813 16.4636ZM9.47813 5.11226C9.70972 5.11226 9.93181 5.20425 10.0956 5.36801C10.2593 5.53176 10.3513 5.75385 10.3513 5.98544V10.3513C10.3513 10.5829 10.2593 10.805 10.0956 10.9688C9.93181 11.1325 9.70972 11.2245 9.47813 11.2245C9.24655 11.2245 9.02446 11.1325 8.8607 10.9688C8.69695 10.805 8.60495 10.5829 8.60495 10.3513V5.98544C8.60495 5.75385 8.69695 5.53176 8.8607 5.36801C9.02446 5.20425 9.24655 5.11226 9.47813 5.11226ZM9.47813 13.8441C9.24655 13.8441 9.02446 13.7521 8.8607 13.5883C8.69695 13.4246 8.60495 13.2025 8.60495 12.9709C8.60495 12.7393 8.69695 12.5172 8.8607 12.3534C9.02446 12.1897 9.24655 12.0977 9.47813 12.0977C9.70972 12.0977 9.93181 12.1897 10.0956 12.3534C10.2593 12.5172 10.3513 12.7393 10.3513 12.9709C10.3513 13.2025 10.2593 13.4246 10.0956 13.5883C9.93181 13.7521 9.70972 13.8441 9.47813 13.8441Z" fill="#FF3434"/>
</svg>
