<svg width="60" height="60" viewBox="0 0 60 60" fill="none" xmlns="http://www.w3.org/2000/svg">
<g clip-path="url(#clip0_1996_340)">
<mask id="mask0_1996_340" style="mask-type:luminance" maskUnits="userSpaceOnUse" x="0" y="0" width="60" height="60">
<path d="M60 0H0V60H60V0Z" fill="white"/>
</mask>
<g mask="url(#mask0_1996_340)">
<path d="M29.6055 0.191406C37.4304 0.191406 44.9349 3.29985 50.4679 8.8329C56.001 14.3659 59.1094 21.8703 59.1094 29.6953C59.1094 37.5202 56.001 45.0246 50.4679 50.5577C44.9349 56.0907 37.4304 59.1992 29.6055 59.1992C21.7806 59.1992 14.2762 56.0907 8.74305 50.5577C3.21 45.0246 0.101562 37.5202 0.101562 29.6953C0.101562 21.8703 3.21 14.3659 8.74305 8.8329C14.2762 3.29985 21.7806 0.191406 29.6055 0.191406ZM29.6055 12.8359C29.0704 12.8354 28.5411 12.9466 28.0513 13.1623C27.5616 13.3779 27.1222 13.6933 26.7613 14.0884C26.4003 14.4835 26.1258 14.9495 25.9551 15.4566C25.7844 15.9638 25.7214 16.501 25.77 17.0339L27.3084 33.9185C27.3681 34.4862 27.6358 35.0117 28.06 35.3936C28.4841 35.7756 29.0347 35.9869 29.6055 35.9869C30.1763 35.9869 30.7269 35.7756 31.1511 35.3936C31.5752 35.0117 31.843 34.4862 31.9026 33.9185L33.4368 17.0339C33.4854 16.5013 33.4225 15.9645 33.2521 15.4576C33.0816 14.9507 32.8074 14.485 32.447 14.09C32.0865 13.695 31.6476 13.3794 31.1584 13.1635C30.6691 12.9476 30.1403 12.836 29.6055 12.8359ZM29.6055 46.5546C30.4998 46.5546 31.3574 46.1994 31.9898 45.567C32.6221 44.9347 32.9774 44.077 32.9774 43.1828C32.9774 42.2885 32.6221 41.4308 31.9898 40.7985C31.3574 40.1661 30.4998 39.8109 29.6055 39.8109C28.7112 39.8109 27.8536 40.1661 27.2212 40.7985C26.5889 41.4308 26.2336 42.2885 26.2336 43.1828C26.2336 44.077 26.5889 44.9347 27.2212 45.567C27.8536 46.1994 28.7112 46.5546 29.6055 46.5546Z" fill="#030F23"/>
</g>
</g>
<defs>
<clipPath id="clip0_1996_340">
<rect width="60" height="60" fill="white"/>
</clipPath>
</defs>
</svg>
