<svg width="122" height="122" viewBox="0 0 122 122" fill="none" xmlns="http://www.w3.org/2000/svg">
<g filter="url(#filter0_d_219_2)">
<ellipse cx="107.34" cy="36.3224" rx="3.7153" ry="3.74282" fill="url(#paint0_linear_219_2)"/>
<ellipse cx="61.2519" cy="63.5649" rx="42.2519" ry="42.5649" fill="url(#paint1_linear_219_2)"/>
<path d="M76.7475 48.8011C76.9981 48.5475 77.2972 48.346 77.6272 48.2084C77.9573 48.0709 78.3117 48 78.6697 48C79.0277 48 79.3822 48.0709 79.7122 48.2084C80.0423 48.346 80.3414 48.5475 80.592 48.8011C81.6421 49.8538 81.6568 51.5548 80.6287 52.6257L58.9169 78.0868C58.6704 78.3553 58.3712 78.5712 58.0378 78.7211C57.7043 78.871 57.3435 78.9518 56.9774 78.9586C56.6114 78.9654 56.2478 78.8981 55.9089 78.7607C55.5699 78.6233 55.2628 78.4188 55.0063 78.1597L41.7949 64.8791C41.2854 64.3636 41 63.6705 41 62.9486C41 62.2267 41.2854 61.5335 41.7949 61.0181C42.0455 60.7644 42.3446 60.5629 42.6747 60.4254C43.0047 60.2878 43.3591 60.2169 43.7172 60.2169C44.0752 60.2169 44.4296 60.2878 44.7596 60.4254C45.0897 60.5629 45.3888 60.7644 45.6394 61.0181L56.8459 72.2843L76.6741 48.8812C76.6969 48.8531 76.7214 48.8263 76.7475 48.8011Z" fill="white"/>
<ellipse cx="14.8299" cy="33.7026" rx="4.82989" ry="4.86566" fill="url(#paint2_linear_219_2)"/>
<ellipse cx="64.6155" cy="12.7427" rx="1.85765" ry="1.87141" fill="url(#paint3_linear_219_2)"/>
<ellipse cx="17.8021" cy="79.365" rx="1.11459" ry="1.12285" fill="url(#paint4_linear_219_2)"/>
<ellipse cx="86.9076" cy="104.068" rx="1.11459" ry="1.12285" fill="url(#paint5_linear_219_2)"/>
<ellipse cx="106.226" cy="76.3706" rx="2.60071" ry="2.61997" fill="url(#paint6_linear_219_2)"/>
<ellipse cx="46.7823" cy="109.307" rx="2.60071" ry="2.61997" fill="url(#paint7_linear_219_2)"/>
</g>
<defs>
<filter id="filter0_d_219_2" x="0" y="0.871338" width="121.055" height="121.056" filterUnits="userSpaceOnUse" color-interpolation-filters="sRGB">
<feFlood flood-opacity="0" result="BackgroundImageFix"/>
<feColorMatrix in="SourceAlpha" type="matrix" values="0 0 0 0 0 0 0 0 0 0 0 0 0 0 0 0 0 0 127 0" result="hardAlpha"/>
<feOffset/>
<feGaussianBlur stdDeviation="5"/>
<feComposite in2="hardAlpha" operator="out"/>
<feColorMatrix type="matrix" values="0 0 0 0 0 0 0 0 0 0 0 0 0 0 0 0 0 0 0.25 0"/>
<feBlend mode="normal" in2="BackgroundImageFix" result="effect1_dropShadow_219_2"/>
<feBlend mode="normal" in="SourceGraphic" in2="effect1_dropShadow_219_2" result="shape"/>
</filter>
<linearGradient id="paint0_linear_219_2" x1="107.34" y1="32.5796" x2="107.34" y2="40.0652" gradientUnits="userSpaceOnUse">
<stop stop-color="#032D62"/>
<stop offset="1" stop-color="#5D47EF"/>
</linearGradient>
<linearGradient id="paint1_linear_219_2" x1="61.2519" y1="21" x2="61.2519" y2="106.13" gradientUnits="userSpaceOnUse">
<stop stop-color="#032D62"/>
<stop offset="1" stop-color="#032D62"/>
</linearGradient>
<linearGradient id="paint2_linear_219_2" x1="14.8299" y1="28.8369" x2="14.8299" y2="38.5682" gradientUnits="userSpaceOnUse">
<stop stop-color="#032D62"/>
<stop offset="1" stop-color="#5D47EF"/>
</linearGradient>
<linearGradient id="paint3_linear_219_2" x1="64.6155" y1="10.8713" x2="64.6155" y2="14.6142" gradientUnits="userSpaceOnUse">
<stop stop-color="#032D62"/>
<stop offset="1" stop-color="#5D47EF"/>
</linearGradient>
<linearGradient id="paint4_linear_219_2" x1="17.8021" y1="78.2422" x2="17.8021" y2="80.4879" gradientUnits="userSpaceOnUse">
<stop stop-color="#032D62"/>
<stop offset="1" stop-color="#5D47EF"/>
</linearGradient>
<linearGradient id="paint5_linear_219_2" x1="86.9076" y1="102.945" x2="86.9076" y2="105.19" gradientUnits="userSpaceOnUse">
<stop stop-color="#032D62"/>
<stop offset="1" stop-color="#5D47EF"/>
</linearGradient>
<linearGradient id="paint6_linear_219_2" x1="106.226" y1="73.7506" x2="106.226" y2="78.9906" gradientUnits="userSpaceOnUse">
<stop stop-color="#032D62"/>
<stop offset="1" stop-color="#5D47EF"/>
</linearGradient>
<linearGradient id="paint7_linear_219_2" x1="46.7823" y1="106.687" x2="46.7823" y2="111.927" gradientUnits="userSpaceOnUse">
<stop stop-color="#032D62"/>
<stop offset="1" stop-color="#5D47EF"/>
</linearGradient>
</defs>
</svg>
