<svg width="26" height="25" viewBox="0 0 26 25" fill="none" xmlns="http://www.w3.org/2000/svg">
<g id="mingcute:file-export-line" clip-path="url(#clip0_924_9267)">
<g id="Group">
<path id="Vector" fill-rule="evenodd" clip-rule="evenodd" d="M14.6922 2.08337C15.1813 2.08349 15.6548 2.2557 16.0297 2.56983L16.1651 2.69379L20.763 7.29171C21.1089 7.63756 21.322 8.09408 21.3651 8.58129L21.3735 8.76462V12.5H19.2901V10.4167H14.6026C14.2142 10.4167 13.8397 10.272 13.5522 10.0109C13.2647 9.74971 13.0847 9.39083 13.0474 9.00421L13.0401 8.85421V4.16671H6.79012V20.8334H13.0401V22.9167H6.79012C6.26452 22.9169 5.75828 22.7184 5.37288 22.361C4.98749 22.0036 4.75142 21.5137 4.712 20.9896L4.70679 20.8334V4.16671C4.70662 3.64111 4.90513 3.13487 5.26251 2.74947C5.6199 2.36407 6.10975 2.128 6.63387 2.08858L6.79012 2.08337H14.6922ZM20.0266 15.0667L22.9724 18.0136C23.1677 18.2089 23.2774 18.4738 23.2774 18.75C23.2774 19.0263 23.1677 19.2912 22.9724 19.4865L20.0266 22.4323C19.9305 22.5318 19.8155 22.6112 19.6885 22.6658C19.5614 22.7204 19.4247 22.7491 19.2864 22.7503C19.1481 22.7515 19.0109 22.7251 18.8829 22.6728C18.7549 22.6204 18.6386 22.5431 18.5407 22.4452C18.4429 22.3474 18.3656 22.2311 18.3132 22.1031C18.2608 21.9751 18.2345 21.8379 18.2357 21.6996C18.2369 21.5613 18.2656 21.4246 18.3202 21.2975C18.3748 21.1704 18.4542 21.0555 18.5537 20.9594L19.7214 19.7917H15.1235C14.8472 19.7917 14.5822 19.682 14.3869 19.4866C14.1915 19.2913 14.0818 19.0263 14.0818 18.75C14.0818 18.4738 14.1915 18.2088 14.3869 18.0135C14.5822 17.8181 14.8472 17.7084 15.1235 17.7084H19.7214L18.5537 16.5407C18.3582 16.3453 18.2483 16.0804 18.2482 15.8041C18.2481 15.5277 18.3578 15.2627 18.5531 15.0672C18.7485 14.8718 19.0134 14.7619 19.2898 14.7618C19.5661 14.7617 19.8311 14.8714 20.0266 15.0667ZM15.1235 4.59796V8.33337H18.8589L15.1235 4.59796Z" fill="white"/>
</g>
</g>
<defs>
<clipPath id="clip0_924_9267">
<rect width="25" height="25" fill="white" transform="translate(0.540039)"/>
</clipPath>
</defs>
</svg>
