<svg width="21" height="21" viewBox="0 0 21 21" fill="none" xmlns="http://www.w3.org/2000/svg">
<g id="carbon:location">
<path id="Vector" d="M10.135 11.7669C9.50855 11.7669 8.89621 11.5811 8.37537 11.2331C7.85453 10.8851 7.44858 10.3904 7.20886 9.81172C6.96915 9.23299 6.90642 8.59617 7.02863 7.9818C7.15084 7.36742 7.45248 6.80308 7.89542 6.36014C8.33836 5.91721 8.9027 5.61556 9.51708 5.49335C10.1314 5.37115 10.7683 5.43387 11.347 5.67358C11.9257 5.9133 12.4204 6.31925 12.7684 6.84009C13.1164 7.36093 13.3022 7.97327 13.3022 8.59968C13.3011 9.43937 12.9671 10.2444 12.3734 10.8381C11.7796 11.4319 10.9746 11.7659 10.135 11.7669ZM10.135 6.69937C9.75912 6.69937 9.39171 6.81082 9.07921 7.01963C8.7667 7.22844 8.52313 7.52523 8.3793 7.87247C8.23547 8.2197 8.19784 8.60179 8.27116 8.97042C8.34449 9.33904 8.52548 9.67765 8.79124 9.94341C9.057 10.2092 9.39561 10.3902 9.76423 10.4635C10.1329 10.5368 10.5149 10.4992 10.8622 10.3553C11.2094 10.2115 11.5062 9.96795 11.715 9.65544C11.9238 9.34294 12.0353 8.97553 12.0353 8.59968C12.0348 8.09584 11.8344 7.61278 11.4781 7.25652C11.1219 6.90025 10.6388 6.69987 10.135 6.69937Z" fill="white"/>
<path id="Vector_2" d="M10.1348 19.3681L4.79113 13.066C4.71688 12.9714 4.6434 12.8762 4.5707 12.7803C3.6579 11.5779 3.16479 10.1093 3.167 8.59965C3.167 6.75167 3.90111 4.97938 5.20782 3.67266C6.51454 2.36594 8.28683 1.63184 10.1348 1.63184C11.9828 1.63184 13.7551 2.36594 15.0618 3.67266C16.3685 4.97938 17.1026 6.75167 17.1026 8.59965C17.1048 10.1086 16.6119 11.5766 15.6996 12.7784L15.6989 12.7803C15.6989 12.7803 15.5089 13.0299 15.4804 13.0635L10.1348 19.3681ZM5.58166 12.017C5.58293 12.017 5.72989 12.2121 5.76346 12.254L10.1348 17.4095L14.5119 12.247C14.5397 12.2121 14.688 12.0158 14.6886 12.0151C15.4342 11.0328 15.8372 9.83297 15.8357 8.59965C15.8357 7.08767 15.2351 5.63761 14.166 4.56848C13.0968 3.49934 11.6468 2.89871 10.1348 2.89871C8.62283 2.89871 7.17277 3.49934 6.10364 4.56848C5.03451 5.63761 4.43387 7.08767 4.43387 8.59965C4.43255 9.83374 4.83533 11.0342 5.58166 12.017Z" fill="white"/>
</g>
</svg>
