<svg width="100" height="100" viewBox="0 0 100 100" fill="none" xmlns="http://www.w3.org/2000/svg">
<circle cx="50" cy="50" r="50" fill="white"/>
<g clip-path="url(#clip0_1977_344)">
<path d="M68.3833 32.6183C68.6851 32.3103 69.0454 32.0656 69.443 31.8986C69.8406 31.7315 70.2676 31.6455 70.6988 31.6455C71.1301 31.6455 71.5571 31.7315 71.9547 31.8986C72.3523 32.0656 72.7126 32.3103 73.0144 32.6183C74.2795 33.8967 74.2972 35.9624 73.0587 37.2628L46.9037 68.1816C46.6068 68.5077 46.2464 68.7698 45.8447 68.9518C45.443 69.1339 45.0083 69.232 44.5674 69.2403C44.1264 69.2486 43.6884 69.1668 43.2801 69C42.8719 68.8332 42.5019 68.5848 42.1929 68.2701L26.2779 52.1428C25.6641 51.5168 25.3203 50.6751 25.3203 49.7984C25.3203 48.9217 25.6641 48.08 26.2779 47.4541C26.5798 47.1461 26.9401 46.9014 27.3377 46.7343C27.7353 46.5673 28.1622 46.4812 28.5935 46.4812C29.0248 46.4812 29.4517 46.5673 29.8493 46.7343C30.2469 46.9014 30.6072 47.1461 30.9091 47.4541L44.409 61.1353L68.2948 32.7157C68.3223 32.6815 68.3518 32.649 68.3833 32.6183Z" fill="#3182CE"/>
</g>
<defs>
<clipPath id="clip0_1977_344">
<rect width="48.1857" height="37.6451" fill="white" transform="translate(25.5996 31.6221)"/>
</clipPath>
</defs>
</svg>
