<svg width="35" height="35" viewBox="0 0 35 35" fill="none" xmlns="http://www.w3.org/2000/svg">
<rect width="35" height="35" rx="5" fill="white"/>
<path d="M17.9921 9.61511C17.9921 9.28149 18.1247 8.96153 18.3606 8.72562C18.5965 8.48971 18.9164 8.35718 19.2501 8.35718H29.3135C29.6472 8.35718 29.9671 8.48971 30.203 8.72562C30.4389 8.96153 30.5715 9.28149 30.5715 9.61511C30.5715 9.94874 30.4389 10.2687 30.203 10.5046C29.9671 10.7405 29.6472 10.8731 29.3135 10.8731H19.2501C18.9164 10.8731 18.5965 10.7405 18.3606 10.5046C18.1247 10.2687 17.9921 9.94874 17.9921 9.61511Z" fill="black"/>
<path d="M17.9921 18.4208C17.9921 18.0872 18.1247 17.7672 18.3606 17.5313C18.5965 17.2954 18.9164 17.1628 19.2501 17.1628H29.3135C29.6472 17.1628 29.9671 17.2954 30.203 17.5313C30.4389 17.7672 30.5715 18.0872 30.5715 18.4208C30.5715 18.7544 30.4389 19.0744 30.203 19.3103C29.9671 19.5462 29.6472 19.6787 29.3135 19.6787H19.2501C18.9164 19.6787 18.5965 19.5462 18.3606 19.3103C18.1247 19.0744 17.9921 18.7544 17.9921 18.4208Z" fill="black"/>
<path d="M17.9921 27.226C17.9921 26.8923 18.1247 26.5724 18.3606 26.3365C18.5965 26.1005 18.9164 25.968 19.2501 25.968H29.3135C29.6472 25.968 29.9671 26.1005 30.203 26.3365C30.4389 26.5724 30.5715 26.8923 30.5715 27.226C30.5715 27.5596 30.4389 27.8795 30.203 28.1154C29.9671 28.3514 29.6472 28.4839 29.3135 28.4839H19.2501C18.9164 28.4839 18.5965 28.3514 18.3606 28.1154C18.1247 27.8795 17.9921 27.5596 17.9921 27.226Z" fill="black"/>
<path d="M10.4443 8.29428L11.9538 10.873H8.87188L10.4443 8.29428ZM10.4443 4.58337C10.2282 4.59264 10.0177 4.65485 9.83125 4.76452C9.64481 4.87418 9.48816 5.02796 9.37506 5.21234L5.53835 11.502C5.44365 11.6982 5.39446 11.9132 5.39446 12.131C5.39446 12.3488 5.44365 12.5638 5.53835 12.76C5.64195 12.9526 5.79643 13.1131 5.98497 13.224C6.17351 13.335 6.38888 13.392 6.6076 13.3889H14.2181C14.4342 13.3796 14.6447 13.3174 14.8312 13.2078C15.0176 13.0981 15.1743 12.9443 15.2874 12.76C15.4118 12.5738 15.4781 12.3549 15.4781 12.131C15.4781 11.9071 15.4118 11.6882 15.2874 11.502L11.5135 5.21234C11.41 5.01968 11.2555 4.85915 11.0669 4.74825C10.8784 4.63734 10.663 4.58031 10.4443 4.58337Z" fill="black"/>
<path d="M10.4446 22.1943C9.69825 22.1943 8.96863 21.973 8.34803 21.5583C7.72743 21.1437 7.24373 20.5543 6.9581 19.8647C6.67247 19.1751 6.59773 18.4164 6.74335 17.6843C6.88896 16.9523 7.24838 16.2798 7.77616 15.7521C8.30393 15.2243 8.97636 14.8649 9.70841 14.7192C10.4405 14.5736 11.1992 14.6484 11.8888 14.934C12.5784 15.2196 13.1678 15.7033 13.5824 16.3239C13.9971 16.9445 14.2185 17.6742 14.2185 18.4205C14.2185 19.4214 13.8209 20.3813 13.1131 21.089C12.4054 21.7968 11.4455 22.1943 10.4446 22.1943ZM10.4446 17.1626C10.1958 17.1626 9.95264 17.2364 9.74577 17.3746C9.5389 17.5128 9.37767 17.7093 9.28246 17.9391C9.18725 18.169 9.16234 18.4219 9.21088 18.666C9.25941 18.91 9.37922 19.1341 9.55515 19.31C9.73107 19.486 9.95522 19.6058 10.1992 19.6543C10.4432 19.7028 10.6962 19.6779 10.926 19.5827C11.1559 19.4875 11.3524 19.3263 11.4906 19.1194C11.6288 18.9125 11.7026 18.6693 11.7026 18.4205C11.7026 18.0869 11.57 17.767 11.3341 17.531C11.0982 17.2951 10.7783 17.1626 10.4446 17.1626Z" fill="black"/>
<path d="M12.9605 31H7.92877C7.59514 31 7.27518 30.8675 7.03927 30.6316C6.80336 30.3957 6.67083 30.0757 6.67083 29.7421V24.7103C6.67083 24.3767 6.80336 24.0567 7.03927 23.8208C7.27518 23.5849 7.59514 23.4524 7.92877 23.4524H12.9605C13.2941 23.4524 13.6141 23.5849 13.85 23.8208C14.0859 24.0567 14.2184 24.3767 14.2184 24.7103V29.7421C14.2184 30.0757 14.0859 30.3957 13.85 30.6316C13.6141 30.8675 13.2941 31 12.9605 31ZM9.1867 28.4841H11.7026V25.9683H9.1867V28.4841Z" fill="black"/>
</svg>
