<svg width="35" height="35" viewBox="0 0 35 35" fill="none" xmlns="http://www.w3.org/2000/svg">
<rect width="35" height="35" rx="5" fill="white"/>
<path d="M27.6042 8.4147C26.3872 7.19183 24.6692 7 22.641 7H13.3352C11.3308 7 9.6128 7.19183 8.39589 8.4147C7.17893 9.63758 7 11.352 7 13.3542V22.6099C7 24.6599 7.17893 26.3624 8.39589 27.5853C9.6128 28.8082 11.3308 29 13.3709 29H22.641C24.6692 29 26.3872 28.8082 27.6042 27.5853C28.8212 26.3624 29 24.6599 29 22.6099V13.3902C29 11.3401 28.8212 9.62561 27.6042 8.4147ZM8.92081 13.0904C8.92081 11.8316 9.07592 10.5368 9.79178 9.81743C10.5196 9.08609 11.8199 8.93028 13.0727 8.93028H17.141V13.3183C16.3536 11.7837 15.0054 10.8365 13.5022 10.8365C11.7961 10.8365 10.5076 12.1193 10.5076 13.8698C10.5076 15.3804 11.5694 16.6272 13.0727 17.3106H8.92081V13.0904ZM27.0792 13.0545V17.3106H22.641C24.1443 16.6272 25.2061 15.3804 25.2061 13.8698C25.2061 12.1193 23.9176 10.8365 22.1996 10.8365C20.7083 10.8365 19.3601 11.7837 18.5727 13.3183V8.93028H22.9631C24.192 8.93028 25.4805 9.09811 26.2083 9.81743C26.9241 10.5488 27.0792 11.8196 27.0792 13.0545ZM16.5564 17.1308C14.2061 17.1308 12.1898 15.5123 12.1898 14.0016C12.1898 13.0904 12.7386 12.539 13.5976 12.539C15.3634 12.539 16.9143 14.5172 16.9143 16.7951V17.1308H16.5564ZM19.1573 17.1308H18.7994V16.7951C18.7994 14.5172 20.3384 12.539 22.1042 12.539C22.9751 12.539 23.5239 13.0904 23.5239 14.0016C23.5239 15.5123 21.5076 17.1308 19.1573 17.1308ZM22.9631 27.0698H18.5727V19.4687H18.6682C19.4556 21.9384 22.4024 24.0965 24.2398 24.3722C24.9198 24.4681 25.3374 23.9766 25.3374 23.449C25.3374 22.8736 24.9914 22.4899 24.371 22.43C22.7246 22.2501 20.422 20.0921 19.73 18.6294H27.0792V22.9335C27.0792 24.1804 26.9241 25.4512 26.2083 26.1826C25.4805 26.9019 24.192 27.0698 22.9631 27.0698ZM13.0369 27.0698C11.808 27.0698 10.5196 26.9019 9.80369 26.1826C9.07592 25.4512 8.92081 24.1804 8.92081 22.9335V18.6294H15.9837C15.2918 20.0921 12.9892 22.2501 11.3427 22.43C10.7224 22.4899 10.3764 22.8736 10.3764 23.449C10.3764 23.9766 10.7939 24.4681 11.474 24.3722C13.3113 24.0965 16.2582 21.9384 17.0456 19.4687H17.141V27.0698H13.0369Z" fill="black"/>
</svg>
