<svg width="35" height="35" viewBox="0 0 35 35" fill="none" xmlns="http://www.w3.org/2000/svg">
<rect width="35" height="35" rx="5" fill="white"/>
<path d="M22 27V25C22 23.9391 21.5786 22.9217 20.8284 22.1716C20.0783 21.4214 19.0609 21 18 21H12C10.9391 21 9.92172 21.4214 9.17157 22.1716C8.42143 22.9217 8 23.9391 8 25V27" stroke="black" stroke-width="2" stroke-linecap="round" stroke-linejoin="round"/>
<path d="M15 17C17.2091 17 19 15.2091 19 13C19 10.7909 17.2091 9 15 9C12.7909 9 11 10.7909 11 13C11 15.2091 12.7909 17 15 17Z" stroke="black" stroke-width="2" stroke-linecap="round" stroke-linejoin="round"/>
<path d="M26 9C26 9 28 10.2 28 13C28 15.8 26 17 26 17M24 11C24 11 25 11.6 25 13C25 14.4 24 15 24 15" stroke="black" stroke-width="1.5" stroke-linecap="round"/>
</svg>
