<svg width="35" height="35" viewBox="0 0 35 35" fill="none" xmlns="http://www.w3.org/2000/svg">
<rect width="35" height="35" rx="5" fill="white"/>
<path d="M19.375 27.625H16.625C16.2603 27.625 15.9106 27.4801 15.6527 27.2223C15.3949 26.9644 15.25 26.6147 15.25 26.25V21.4375C14.8853 21.4375 14.5356 21.2926 14.2777 21.0348C14.0199 20.7769 13.875 20.4272 13.875 20.0625V15.9375C13.875 15.3905 14.0923 14.8659 14.4791 14.4791C14.8659 14.0923 15.3905 13.875 15.9375 13.875H20.0625C20.6095 13.875 21.1341 14.0923 21.5209 14.4791C21.9077 14.8659 22.125 15.3905 22.125 15.9375V20.0625C22.125 20.4272 21.9801 20.7769 21.7223 21.0348C21.4644 21.2926 21.1147 21.4375 20.75 21.4375V26.25C20.75 26.6147 20.6051 26.9644 20.3473 27.2223C20.0894 27.4801 19.7397 27.625 19.375 27.625ZM15.9375 15.25C15.8456 15.2439 15.7535 15.2575 15.6674 15.2899C15.5812 15.3223 15.503 15.3728 15.4379 15.4379C15.3728 15.503 15.3223 15.5812 15.2899 15.6674C15.2575 15.7536 15.2439 15.8456 15.25 15.9375V20.0625H16.625V26.25H19.375V20.0625H20.75V15.9375C20.7561 15.8456 20.7425 15.7536 20.7101 15.6674C20.6777 15.5812 20.6272 15.503 20.5621 15.4379C20.497 15.3728 20.4188 15.3223 20.3326 15.2899C20.2464 15.2575 20.1544 15.2439 20.0625 15.25H15.9375ZM18 13.1875C17.4561 13.1875 16.9244 13.0262 16.4722 12.724C16.0199 12.4219 15.6675 11.9924 15.4593 11.4899C15.2512 10.9874 15.1967 10.4345 15.3028 9.901C15.4089 9.36756 15.6709 8.87755 16.0555 8.49296C16.4401 8.10836 16.9301 7.84645 17.4635 7.74034C17.9969 7.63423 18.5499 7.68869 19.0524 7.89683C19.5549 8.10497 19.9844 8.45745 20.2865 8.90968C20.5887 9.36192 20.75 9.8936 20.75 10.4375C20.75 11.1668 20.4603 11.8663 19.9445 12.382C19.4288 12.8978 18.7293 13.1875 18 13.1875ZM18 9.0625C17.7281 9.0625 17.4622 9.14314 17.2361 9.29423C17.01 9.44532 16.8337 9.66006 16.7297 9.91131C16.6256 10.1626 16.5984 10.439 16.6514 10.7058C16.7045 10.9725 16.8354 11.2175 17.0277 11.4098C17.22 11.6021 17.465 11.733 17.7318 11.7861C17.9985 11.8391 18.2749 11.8119 18.5262 11.7078C18.7774 11.6038 18.9922 11.4275 19.1433 11.2014C19.2944 10.9753 19.375 10.7095 19.375 10.4375C19.375 10.0728 19.2301 9.72309 18.9723 9.46523C18.7144 9.20737 18.3647 9.0625 18 9.0625Z" fill="black"/>
</svg>
