<svg width="35" height="35" viewBox="0 0 35 35" fill="none" xmlns="http://www.w3.org/2000/svg">
<rect width="35" height="35" rx="5" fill="white"/>
<path d="M17.2631 18.9121L17.2624 18.9052L17.2624 18.9052L16.7671 13.4686C16.7451 13.2278 16.7736 12.985 16.8507 12.7558C16.9278 12.5266 17.0519 12.316 17.2151 12.1375C17.3782 11.9589 17.5767 11.8164 17.7981 11.7189C18.0193 11.6215 18.2584 11.5713 18.5001 11.5714C18.5002 11.5714 18.5003 11.5714 18.5004 11.5714L18.5 12.0714C18.6722 12.0715 18.8425 12.1074 19 12.1769C19.1575 12.2464 19.2988 12.348 19.4149 12.4752C19.531 12.6024 19.6193 12.7524 19.6742 12.9156C19.729 13.0788 19.7493 13.2517 19.7336 13.4231L17.2631 18.9121ZM17.2631 18.9121C17.2952 19.2178 17.4394 19.5007 17.6678 19.7064C17.8962 19.9121 18.1926 20.0259 18.5 20.0259C18.8074 20.0259 19.1038 19.9121 19.3322 19.7064C19.5606 19.5007 19.7048 19.2178 19.7369 18.9121L19.737 18.9121L19.7376 18.9051L20.2316 13.4686L17.2631 18.9121ZM18.5 8.5C20.8869 8.5 23.1761 9.44821 24.864 11.136C26.5518 12.8239 27.5 15.1131 27.5 17.5C27.5 19.8869 26.5518 22.1761 24.864 23.864C23.1761 25.5518 20.8869 26.5 18.5 26.5C16.1131 26.5 13.8239 25.5518 12.136 23.864C10.4482 22.1761 9.5 19.8869 9.5 17.5C9.5 15.1131 10.4482 12.8239 12.136 11.136C13.8239 9.44821 16.1131 8.5 18.5 8.5ZM18.5 23.4286C18.9206 23.4286 19.3239 23.2615 19.6213 22.9641C19.9186 22.6667 20.0857 22.2634 20.0857 21.8429C20.0857 21.4223 19.9186 21.019 19.6213 20.7216C19.3239 20.4242 18.9206 20.2571 18.5 20.2571C18.0794 20.2571 17.6761 20.4242 17.3787 20.7216C17.0814 21.019 16.9143 21.4223 16.9143 21.8429C16.9143 22.2634 17.0814 22.6667 17.3787 22.9641C17.6761 23.2615 18.0794 23.4286 18.5 23.4286Z" stroke="black"/>
</svg>
